/* XPM */
static char *coll1707663386[] = {
/* columns rows colors chars-per-pixel */
"32 32 11 1 ",
"  c #423934",
". c #8E5252",
"X c #BA756A",
"o c #39973A",
"O c #5E882C",
"+ c #74994B",
"@ c #A08662",
"# c #9CDB43",
"$ c #C0F675",
"% c #C7B08B",
"& c #E4D2AA",
/* pixels */
"################################",
"################################",
"################################",
"################################",
"##################$$############",
"##################$$$##$$$######",
"#################oo$$#$$$#######",
"########### ######oo$#$$oo######",
"########## X #########$oo#######",
"#########XXX& ##################",
"######## &XXX. ###   ###########",
"#########.... ### XXX ##########",
"#########    ### XXXXX #########",
"########## @ ## XXXXX&X ########",
"#########O % O .&XXXXXX. #######",
"#########OOOOO ..XX&XX.. #######",
"############### ....... ########",
"################       #########",
"################# %@@ ##########",
"################ %%%%@ #########",
"###############OO %%% OO########",
"##########$$###OOOOOOOOO########",
"##########$$$##$++OOOOO#########",
"#########oo$$#$$$###############",
"#######$$$oo$#$$oo##############",
"########$$$###$oo###############",
"#######oo$$#####################",
"########oo$#####################",
"################################",
"################################",
"################################",
"################################"
};
