/* XPM */
static char *result[] = {
/* columns rows colors chars-per-pixel */
"32 32 13 1 ",
"  c #122020",
". c #163425",
"X c #423934",
"o c #24523B",
"O c #1A7A3E",
"+ c #5A4E44",
"@ c #796755",
"# c #14A02E",
"$ c #5E882C",
"% c #59C135",
"& c #9CDB43",
"* c #C0F675",
"= c None",
/* pixels */
"XX*&&&&&&&&  &&&&&&&&&&&&&&&&&&&",
"X+X&&&&&&&& % &&&&   &&&&&&&&&&&",
"X&*&&   &&& % &&& %%% &&&&&&&&&&",
"**&& %%% && %# & O#%# &&&&&&&&&&",
"&&& .%%%O & ##O  O##Oo     &&&&&",
"X&& ..O%##  O#O.o##O   o#%%  &&&",
"=XX&    ###..#O.oOO..O##%#### &&",
"XX  OOo O##O..O..O .########## &",
"X O#%OOooOOO..O. O..O##   ... &&",
" O#%####o..OO....O.OO  ... . &&&",
" ... OO#OO. OO.. O.O...OOO. &&&&",
" ..     OOO  OO   .  OOO%OOO &&&",
"X    OOOOOoO       .OOo%%%%# &&&",
"&& OO%%%...           O###o## &&",
"X O#%%....##O .     ... %#oo# &&",
" O##%O.  #%#..OO.    #... #ooo &",
" ##    #%%O..##O.OOO  %#.   .oo ",
" oO  #%%#OO.%%O OOO%#. %%  & .. ",
"X   #####O.#%o O%%OO%.#O#O &&  &",
"X& ##O##O#.%%# #%#.#%O.###O &&&&",
"X ##OOOO#..### %%#.O##O..#OO &&&",
"= O OOO# ..### ###.O##O  .OOO &&",
"XX OOOO  .OO#o O#O.OO#OO    O &&",
"XX ooO & .OOO . OO.OO oOO $&  &&",
"X Ooo && OOOo . OO OO .OO $$&&&&",
"X oo &&$ OOO .. OO .O . OO $$&&&",
"X o &&$$ OOo .. OO..O .  O $&&&&",
"X+ &$$$$ o.   .. O  O  $$  $$&&&",
"X+@&$$$$ . $$  .   $ $$$$$$$$$&&",
"X+*$$$$$  $$$$$$$$$$$$$$$$$$$$&&",
"X&*&&&$$$$$$$$$$$$$$$$$$$$$$&&&&",
"=*&&&&$$$&&&&$$$$&&&$$&&&&$$&&&&"
};
