/* XPM */
static char *result[] = {
/* columns rows colors chars-per-pixel */
"32 32 14 1 ",
"  c #122020",
". c #163425",
"X c #423934",
"o c #24523B",
"O c #1A7A3E",
"+ c #494237",
"@ c #5A4E44",
"# c #14A02E",
"$ c #5E882C",
"% c #59C135",
"& c #74994B",
"* c #9CDB43",
"= c #C0F675",
"- c None",
/* pixels */
"***********  ****************=XX",
"*********** % ****   ********X@X",
"*****   *** % *** %%% *******=*X",
"**** %%% ** %# * O#%# ********==",
"*** .%%%O * ##O  O##Oo     *****",
"*** ..O%##  O#O.o##O   o#%%  **X",
"****    ###..#O.oOO..O##%#### X-",
"**  OOo O##O..O..O .########## X",
"* O#%OOooOOO..O. O..O##   ... *X",
" O#%####o..OO....O.OO  ... . *XX",
" ... OO#OO. OO.. O.O...OOO. *X@X",
" ..     OOO  OO   .  OOO%OOO X@X",
"*    OOOOOoO       .OOo%%%%# =@X",
"** OO%%%...           O###o## **",
"* O#%%....##O .     ... %#oo# *X",
" O##%O.  #%#..OO.    #... #ooo -",
" ##    #%%O..##O.OOO  %#.   .oo ",
" oO  #%%#OO.%%O OOO%#. %%  * .. ",
"*   #####O.#%o O%%OO%.#O#O **  X",
"** ##O##O#.%%# #%#.#%O.###O ***X",
"* ##OOOO#..### %%#.O##O..#OO =*X",
"* O OOO# ..### ###.O##O  .OOO X-",
"** OOOO  .OO#o O#O.OO#OO    O XX",
"** ooO * .OOO . OO.OO oOO $*  XX",
"* Ooo ** OOOo . OO OO .OO $$*=*X",
"* oo **$ OOO .. OO .O . OO $$=*X",
"* o **$$ OOo .. OO..O .  O $**XX",
"** *$$$$ o.   .. O  O  $$  $$X@X",
"****$$$$ . $$  .   $ $$$$$$$$+@X",
"***$$$$$  $$$$$$$$$$$$$$$$$$$&@X",
"******$$$$$$$$$$$$$$$$$$$$$$*=*X",
"******$$$****$$$$***$$****$$**=-"
};
