/* XPM */
static char *result[] = {
/* columns rows colors chars-per-pixel */
"32 32 17 1 ",
"  c #140B01",
". c #201304",
"X c #2E1C08",
"o c #391F02",
"O c #3A3737",
"+ c #522F07",
"@ c #186019",
"# c #6B4111",
"$ c #827C7C",
"% c #39973A",
"& c #7DB929",
"* c #BC8B6D",
"= c #9CDB43",
"- c #C0F675",
"; c #B7B3B2",
": c #D6B39D",
"> c #EFE9E7",
/* pixels */
"================================",
"================================",
"================================",
"================================",
"==================--============",
"==================---==---======",
"=================%%OO=---=======",
"===============&%=%:>>--%%======",
"=========OOO=&;@@@&:>O$%%=======",
"========OO>>>>;>>#*::;$$========",
"========O>>>>>>>>O;:>>;&========",
"=====>>;;>>>>>>>>$$>>>;&========",
"=====OO;;O>>>>>>>>>>>;;@&=======",
"======OO@+#$OO>>>>>>O>>@&=======",
"======&@#+#o+O>>>>>>;;>O@&======",
"=====&%##o+o..O>>>;>>>>+#&======",
"=====&@+X.+o   $;;;;OO;X+%======",
"======&&% o     ;;OOOOO.%&======",
"=======&&       O;$$   %&=======",
"========&@       >>$  &&========",
"========&@       >>>O %&========",
"=========&--       OO&&=========",
"==========---  --- O&===========",
"=========%%--=---===============",
"=======---%%-=--%%==============",
"========---===-%%===============",
"=======%%--=====================",
"========%%-=====================",
"================================",
"================================",
"================================",
"================================"
};
