/* XPM */
static char *result[] = {
/* columns rows colors chars-per-pixel */
"32 32 8 1 ",
"  c #391F02",
". c #522F07",
"X c #186019",
"o c #6B4111",
"O c #39973A",
"+ c #7DB929",
"@ c #9CDB43",
"# c #C0F675",
/* pixels */
"@@@@@@@@@@@@@@@@@@@@@@@@@@@@@@@@",
"@@@@@@@@@@@@@@@@@@@@@@@@@@@@@@@@",
"@@@@@@@@@@@@@@@@@@@@@@@@@@@@@@@@",
"@@@@@@@@@@@@@@@@@@@@@@@@@@@@@@@@",
"@@@@@@@@@@@@@@@@@@##@@@@@@@@@@@@",
"@@@@@@@@@@@@@@@@@@###@@###@@@@@@",
"@@@@@@@@@@@@@@@@@OO##@###@@@@@@@",
"@@@@@@@@@@@@@@@+O@OO#@##OO@@@@@@",
"@@@@@@@@@@@@@+XXXX++@@#OO@@@@@@@",
"@@@@@@@@@@@++. o.oXXO+@@@@@@@@@@",
"@@@@@@@@@+X  .ooooo OO++@@@@@@@@",
"@@@@@@@@+X.oooo..oooo.X+@@@@@@@@",
"@@@@@@@++.o...oo..o.oo.X+@@@@@@@",
"@@@@@@@+X oo ...  . .o.X+@@@@@@@",
"@@@@@@+Xo.oo .   .o .oo.X+@@@@@@",
"@@@@@+Oooo.o. ..o.o .o..o+@@@@@@",
"@@@@@+Xo.o.. .ooo. .ooo..O@@@@@@",
"@@@@@@++O...  .oo  o..o O+@@@@@@",
"@@@@@@@++ .oo. .o ...o.O+@@@@@@@",
"@@@@@@@@+X.ooo.  .ooo.++@@@@@@@@",
"@@@@@@@@+X .oo.o.oo.o O+@@@@@@@@",
"@@@@@@@@@+## .o.  o.X++@@@@@@@@@",
"@@@@@@@@@@###  ### X+@@@@@@@@@@@",
"@@@@@@@@@OO##@###@@@@@@@@@@@@@@@",
"@@@@@@@###OO#@##OO@@@@@@@@@@@@@@",
"@@@@@@@@###@@@#OO@@@@@@@@@@@@@@@",
"@@@@@@@OO##@@@@@@@@@@@@@@@@@@@@@",
"@@@@@@@@OO#@@@@@@@@@@@@@@@@@@@@@",
"@@@@@@@@@@@@@@@@@@@@@@@@@@@@@@@@",
"@@@@@@@@@@@@@@@@@@@@@@@@@@@@@@@@",
"@@@@@@@@@@@@@@@@@@@@@@@@@@@@@@@@",
"@@@@@@@@@@@@@@@@@@@@@@@@@@@@@@@@"
};
