/* XPM */
static char *result[] = {
/* columns rows colors chars-per-pixel */
"32 32 9 1 ",
"  c #2C1802",
". c #391F02",
"X c #522F07",
"o c #186019",
"O c #6B4111",
"+ c #39973A",
"@ c #7DB929",
"# c #9CDB43",
"$ c #C0F675",
/* pixels */
"################################",
"################################",
"################################",
"################################",
"##################$$############",
"##################$$$##$$$######",
"#################++$$#$$$#######",
"###############@+#++$#$$++######",
"#############@oooo@@##$++#######",
"###########@@X.OXOoo+@##########",
"#########@o..XOOOOO.++@@########",
"########@oXOOOOXXOOOOXo@########",
"#######@@XOXXXOO.XOXOOXo@#######",
"#######@o.OO.X....X.XOXo@#######",
"######@oOXOO...  ...XOOXo@######",
"#####@+OOO...     ..XOXXO@######",
"#####@oOXOX.       ..XOXX+######",
"######@@+XX..        XO.+@######",
"#######@@.XX...    ..OX+@#######",
"########@oXOX...  ..OX@@########",
"########@o.XOX.....XO.+@########",
"#########@$$.XXX..XXo@@#########",
"##########$$$..$$$.o@###########",
"#########++$$#$$$###############",
"#######$$$++$#$$++##############",
"########$$$###$++###############",
"#######++$$#####################",
"########++$#####################",
"################################",
"################################",
"################################",
"################################"
};
