/* XPM */
static char *result[] = {
/* columns rows colors chars-per-pixel */
"32 32 16 1 ",
"  c #140B01",
". c #201304",
"X c #2E1C08",
"o c #391F02",
"O c #3A3737",
"+ c #522F07",
"@ c #186019",
"# c #6B4111",
"$ c #827C7C",
"% c #39973A",
"& c #7DB929",
"* c #9CDB43",
"= c #C0F675",
"- c #B7B3B2",
"; c #D6B39D",
": c #EFE9E7",
/* pixels */
"********************************",
"********************************",
"********************************",
"********************************",
"******************==************",
"******************===**===******",
"*****************%%==*===*******",
"***************&%*%%=*==%%******",
"*******::**OOOO@@@&&**=%%*******",
"*******O:--:::O#+#o@%&**********",
"*******OO--:::::+-#o%%&&********",
"********&@O:::::--#+#o@&********",
"*******&&+#o::::::#+o;;@&*******",
"*******&@+#oO:::::O+;;::&*******",
"******&@#+#oOO::::$-;;:O@&******",
"*****&%##o+o.O::::$:;:-$$&******",
"*****&@+X.+o O::::::::-$$%******",
"******&&% o  $::::::::-.%&******",
"*******&&    $-:-::O:- %&*******",
"********&@   ----::-::&&********",
"********&@   O-OOO:::O%&********",
"*********&==  -$OOO- &&*********",
"**********===  === @&***********",
"*********%%==*===***************",
"*******===%%=*==%%**************",
"********===***=%%***************",
"*******%%==*********************",
"********%%=*********************",
"********************************",
"********************************",
"********************************",
"********************************"
};
