/* XPM */
static char *result[] = {
/* columns rows colors chars-per-pixel */
"32 32 11 1 ",
"  c #140B01",
". c #201304",
"X c #2E1C08",
"o c #391F02",
"O c #522F07",
"+ c #186019",
"@ c #6B4111",
"# c #39973A",
"$ c #7DB929",
"% c #9CDB43",
"& c #C0F675",
/* pixels */
"%%%%%%%%%%%%%%%%%%%%%%%%%%%%%%%%",
"%%%%%%%%%%%%%%%%%%%%%%%%%%%%%%%%",
"%%%%%%%%%%%%%%%%%%%%%%%%%%%%%%%%",
"%%%%%%%%%%%%%%%%%%%%%%%%%%%%%%%%",
"%%%%%%%%%%%%%%%%%%&&%%%%%%%%%%%%",
"%%%%%%%%%%%%%%%%%%&&&%%&&&%%%%%%",
"%%%%%%%%%%%%%%%%%##&&%&&&%%%%%%%",
"%%%%%%%%%%%%%%%$#%##&%&&##%%%%%%",
"%%%%%%%%%%%%%$++++$$%%&##%%%%%%%",
"%%%%%%%%%%%$$Oo@O@o+#$%%%%%%%%%%",
"%%%%%%%%%$+oOO@@Oo@o##$$%%%%%%%%",
"%%%%%%%%$+O@O@@oOo@O@o+$%%%%%%%%",
"%%%%%%%$$O@oO@@@OO@Oo@O+$%%%%%%%",
"%%%%%%%$+O@oO@OoO@oOo@O+$%%%%%%%",
"%%%%%%$+@O@oO@.....O@@@O+$%%%%%%",
"%%%%%$#@@oOo..    ..@oOO@$%%%%%%",
"%%%%%$+OX.Oo        ..OXO#%%%%%%",
"%%%%%%$$# o            .#$%%%%%%",
"%%%%%%%$$              #$%%%%%%%",
"%%%%%%%%$+            $$%%%%%%%%",
"%%%%%%%%$+            #$%%%%%%%%",
"%%%%%%%%%$&&         $$%%%%%%%%%",
"%%%%%%%%%%&&&  &&& +$%%%%%%%%%%%",
"%%%%%%%%%##&&%&&&%%%%%%%%%%%%%%%",
"%%%%%%%&&&##&%&&##%%%%%%%%%%%%%%",
"%%%%%%%%&&&%%%&##%%%%%%%%%%%%%%%",
"%%%%%%%##&&%%%%%%%%%%%%%%%%%%%%%",
"%%%%%%%%##&%%%%%%%%%%%%%%%%%%%%%",
"%%%%%%%%%%%%%%%%%%%%%%%%%%%%%%%%",
"%%%%%%%%%%%%%%%%%%%%%%%%%%%%%%%%",
"%%%%%%%%%%%%%%%%%%%%%%%%%%%%%%%%",
"%%%%%%%%%%%%%%%%%%%%%%%%%%%%%%%%"
};
