/* XPM */
static char *result[] = {
/* columns rows colors chars-per-pixel */
"32 32 11 1 ",
"  c #122020",
". c #163425",
"X c #423934",
"o c #24523B",
"O c #1A7A3E",
"+ c #14A02E",
"@ c #5E882C",
"# c #59C135",
"$ c #9CDB43",
"% c #C0F675",
"& c None",
/* pixels */
"&&XX%%X&&&$  X%XXX&&$%&&X%$X&&%&",
"XX%$$$$XXX$ # $$$$   $XX$$$%X%$X",
"$$$$$   $$$ # $$$ ### $$%$$$$$$$",
"$$$$ ### $$ #+ $ O+#+ $$$$$$$$$$",
"$$$ .###O $ ++O  O++Oo     $$$$$",
"$$$ ..O#++  O+O.o++O   o+##  $$$",
"$$$$    +++..+O.oOO..O++#++++ $$",
"$$  OOo O++O..O..O .++++++++++ $",
"$ O+#OOooOOO..O. O..O++   ... $$",
" O+#++++o..OO....O.OO  ... . $$$",
" ... OO+OO. OO.. O.O...OOO. $$$$",
" ..     OOO  OO   .  OOO#OOO $$$",
"$    OOOOOoO       .OOo####+ $$$",
"$$ OO###...           O+++o++ $$",
"$ O+##....++O .     ... #+oo+ $$",
" O++#O.  +#+..OO.    +... +ooo $",
" ++    +##O..++O.OOO  #+.   .oo ",
" oO  +##+OO.##O OOO#+. ##  $ .. ",
"$   +++++O.+#o O##OO#.+O+O $$  $",
"$$ ++O++O+.##+ +#+.+#O.+++O $$$$",
"$ ++OOOO+..+++ ##+.O++O..+OO $$$",
"$ O OOO+ ..+++ +++.O++O  .OOO $$",
"$$ OOOO  .OO+o O+O.OO+OO    O $$",
"$$ ooO $ .OOO . OO.OO oOO @$  $$",
"$ Ooo $$ OOOo . OO OO .OO @@$$$$",
"$ oo $$@ OOO .. OO .O . OO @@$$$",
"$ o $$@@ OOo .. OO..O .  O @$$$$",
"$$ $@@@@ o.   .. O  O  @@  @@$$$",
"$$$$@@@@ . @@  .   @ @@@@@@@@@$$",
"$$$@@@@@  @@@@@@@@@@@@@@@@@@@@$$",
"$$$$$$@@@@@@@@@@@@@@@@@@@@@@$$$$",
"$$$$$$@@@$$$$@@@@$$$@@$$$$@@$$$$"
};
