/* XPM */
static char *result[] = {
/* columns rows colors chars-per-pixel */
"32 32 20 1 ",
"  c #140B01",
". c #201304",
"X c #2E1C08",
"o c #391F02",
"O c #3D253B",
"+ c #3A3737",
"@ c #522F07",
"# c #186019",
"$ c #6B4111",
"% c #827C7C",
"& c #39973A",
"* c #7DB929",
"= c #C49172",
"- c #9CDB43",
"; c #C0F675",
": c #B7B3B2",
"> c #D6B39D",
", c #CCA8A3",
"< c #EBD0C5",
"1 c #EFE9E7",
/* pixels */
"-++------++---------------------",
"-+1+----+1+---------------------",
"-+>1+::+1>+---------------------",
"--=>:++:>=----------------------",
"--%>1111>%--------;;------------",
"-+1::11::1+-------;;;--;;;------",
"-+1%+::+%1+------&&;;-;;;-------",
"-+11:11:11+----*&-&&;-;;&&------",
"--1+1++1+1---*####**--;&&-------",
"-+:1++++1:+**@o$@$o#&*----------",
"--++%::%++#o@@$$@o$o&&**--------",
"---+1%%1+#@$@$$o@o$@$o#*--------",
"---11++11@$o@$$$@@$@o$@#*-------",
"-------*#@$o@$@o@$o@o$@#*-------",
"------*#$@$o@$.....@$$$@#*------",
"-----*&$$o@o..    ..$o@@$*------",
"-----*#@X.@o        ..@X@&------",
"------**& o            .&*------",
"-------**              &*-------",
"--------*#  OOOOOOO   **--------",
"--------*# O<<<<<,,O  &*--------",
"---------*;;<<<<<,,,O**---------",
"----------;;;<<;;;,#*-----------",
"---------&&;;-;;;---------------",
"-------;;;&&;-;;&&--------------",
"--------;;;---;&&---------------",
"-------&&;;---------------------",
"--------&&;---------------------",
"--------------------------------",
"--------------------------------",
"--------------------------------",
"--------------------------------"
};
