/* XPM */
static char *result[] = {
/* columns rows colors chars-per-pixel */
"32 32 15 1 ",
"  c #122020",
". c #163425",
"X c #282623",
"o c #36322D",
"O c #423934",
"+ c #24523B",
"@ c #1A7A3E",
"# c #494237",
"$ c #5A4E44",
"% c #796755",
"& c #14A02E",
"* c #5E882C",
"= c #59C135",
"- c #9CDB43",
"; c None",
/* pixels */
"-----------  -------------------",
"----------- = ----   -----------",
"-----   --- = --- === ----------",
"---- === -- =& - @&=& ----------",
"--- .===@ - &&@  @&&@+     -----",
"--- ..@=&&  @&@.+&&@   +&==  ---",
"----    &&&..&@.+@@..@&&=&&&& --",
"--  @@+ @&&@..@..@ .&&&&&&&&&& -",
"- @&=@@++@@@..@. @..@&&   ... --",
" @&=&&&&+..@@....@.@@  ... . ---",
" ... @@&@@. @@.. @.@...@@@. ----",
" ..     @@@  @@   .  @@@=@@@ ---",
"-    @@@@@+@       .@@+====& ---",
"-- @@===...           @&&&+&& --",
"- @&==....&&@ .     ... =&++& --",
" @&&=@.  &=&..@@.    &... &+++ -",
" &&    &==@..&&@.@@@  =&.   .++ ",
" +@  &==&@@.==@ @@@=&. ==  - .. ",
"-   &&&&&@.&=+ @==@@=.&@&@ --  -",
"-- &&@&&@&.==& &=&.&=@.&&&@ ----",
"- &&@@@@&..&&& ==&.@&&@..&@@ ---",
"- @ @@@& ..&&& &&&.@&&@  .@@@ --",
"-- @@@@  .@@&+ @&@.@@&@@    @ --",
"O- ++@ - .@@@ . @@.@@ +@@ *O  OO",
"% @++ OO @@@+ . @@ @@ .@@ *XO$%%",
"% ++ %%# @@@ .. @@ .@ . @@ XXO$%",
"% + %%## @@+ .. @@..@ .  @ oOO$%",
"$$ Oo### +.   .. @  @  oo  X#OO$",
"%%%OXooo . Xo  .   X X#XXXXX#oO%",
"%%$oXXXX  XXoooooXo####oXo###oO$",
"$$OO$$ooooXXXoooXXXooooXXXoo$OOO",
"OO;;OOXXXO;;OXXXX;;OXXO;;;XXO$;;"
};
