/* XPM */
static char *result[] = {
/* columns rows colors chars-per-pixel */
"32 32 5 1 ",
"  c #A08662",
". c #423934",
"X c #5A4E44",
"o c #796755",
"O c white",
/* pixels */
"   .    .     .Xo   .      .o   ",
"ooX.XXoo.o   o.Xoooo.oo   o.Xo  ",
"oX..XXoo..ooo..Xoooo.Xooooo.XXoo",
"X..o.XXXX.XXX...Xoo..XoooooX..XX",
"o.Xo.....o...o.X...X..XXXXX..ooo",
"X.XoooX.XooooX.XXXXX........XXoo",
"...XXX...XXXX...XXX...XXXXXX..XX",
"  X...   ....  .....  .......X..",
"   o.      .   oX.     .    .X  ",
"  oX.o   oo.ooooX.o   o.ooXX.Xoo",
"ooXX.oooooX.ooooX..ooo..ooXX..Xo",
"....XoooooX..ooX...XXX.XXXX.o...",
"ooo..XXXXX..X...X.o...o.....oX.o",
"ooXX........XXXXX.XooooX.XoooX.X",
"XX..XXXXXX...XXX...XXXX...XXX...",
"..X.......  .....  ....   ...X  ",
"  X.    .     .Xo   .      .o   ",
"ooX.XXoo.o   o.Xoooo.oo   o.Xo  ",
"oX..XXoo..ooo..Xoooo.Xooooo.XXoo",
"...o.XXXX.XXX...Xoo..XoooooX....",
"o.Xo.....o...o.X...X..XXXXX..ooo",
"X.XoooX.XooooX.XXXXX........XXoo",
"...XXX...XXXX...XXX...XXXXXX..XX",
"  X...   ....  .....  .......X..",
"   o.      .   oX.     .    .X  ",
"  oX.o   oo.ooooX.o   o.ooXX.Xoo",
"ooXX.oooooX.ooooX..ooo..ooXX..Xo",
"XX..XoooooX..ooX...XXX.XXXX.o..X",
"ooo..XXXXX..X...X.o...o.....oX.o",
"ooXX........XXXXX.XooooX.XoooX.X",
"XX..XXXXXX...XXX...XXXX...XXX...",
"..X.......  .....  ....   ...o  "
};
