/* XPM */
static char *result[] = {
/* columns rows colors chars-per-pixel */
"32 32 5 1 ",
"  c #423934",
". c #5A4E44",
"X c #796755",
"o c #A08662",
"O c None",
/* pixels */
"ooo oooo ooooo .Xooo.ooooXooXX  ",
"oX. .XXX XoooX .XXXX XXXX XXXX. ",
"X.  ..X.  XXX  .XXXX .XX. .XXX. ",
".  X .... ...   .XX  ....  ...  ",
"X .X     X   X .   . ... .    . ",
". .XXX. .XXXX. .....  .. .XXXX. ",
"   ...   ....   ...     ......  ",
"oo.   ooo    oo     ooo        O",
"oooX oooooX oooX. ooooo XooooXX ",
"XXX. XoooXX XXXX. XoooX .XXXXX. ",
"XX.. XXXXXX XXXX.  XXX  ..XXX.. ",
"    .XXXXX.  XX.   ... . .....  ",
"XXX  .....  .   . X   ..      . ",
"XX..        ..... .XXX... XXXX. ",
"..  ......   ...   ....   ....  ",
"  .       oo     oo    ooo     O",
"oo. oooo ooooo .Xooo.ooooXoooXX ",
"oX. .XXX XoooX .XXXX XXXX XXXX. ",
"X.  ..X.  XXX  .XXXX .XX. .XXX. ",
"   X .... ...   .XX  ....  ...  ",
"X .X     X   X .   . ... .    . ",
". .XXX. .XXXX. .....  .. .XXXX. ",
"   ...   ....   ...     ......  ",
"oo.   ooo    oo     ooo         ",
"oooX oooooX oooX. ooooo XooooXX ",
"XXX. XoooXX XXXX. XoooX .XXXXX. ",
"XX.. XXXXXX XXXX.  XXX  ..XXX.. ",
"..  .XXXXX.  XX.   ... . .....  ",
"XXX  .....  .   . X   ..      . ",
"XX..        ..... .XXX... XXXX. ",
"..  ......   ...   ....   ....  ",
"  .       oo     oo    ooX     O"
};
