/* XPM */
static char *result[] = {
/* columns rows colors chars-per-pixel */
"32 32 17 1 ",
"  c #122020",
". c #163425",
"X c #282623",
"o c #36322D",
"O c #423934",
"+ c #24523B",
"@ c #1A7A3E",
"# c #494237",
"$ c #5A4E44",
"% c #796755",
"& c #14A02E",
"* c #5E882C",
"= c #59C135",
"- c #A08662",
"; c #9CDB43",
": c #C0F675",
"> c None",
/* pixels */
"OO:;;;;;;;;  ;;;;;;;;;;;;;;;;;;;",
"OOO;;;;;;;; = ;;;;   ;;;;;;;;;;;",
"O;:;;   ;;; = ;;; === ;;;;;;;;;;",
"::;; === ;; =& ; @&=& ;;;;;;;;;;",
";;; .===@ ; &&@  @&&@+     ;;;;;",
"O;; ..@=&&  @&@.+&&@   +&==  ;;;",
"OOO;    &&&..&@.+@@..@&&=&&&& ;;",
">O  @@+ @&&@..@..@ .&&&&&&&&&& ;",
"> @&=@@++@@@..@. @..@&&   ... ;;",
" @&=&&&&+..@@....@.@@  ... . ;;;",
" ... @@&@@. @@.. @.@...@@@. ;;;;",
" ..     @@@  @@   .  @@@=@@@ ;;;",
"O    @@@@@+@       .@@+====& ;;;",
";; @@===...           @&&&+&& ;;",
"O @&==....&&@ .     ... =&++& ;;",
" @&&=@.  &=&..@@.    &... &+++ ;",
" &&    &==@..&&@.@@@  =&.   .++ ",
" +@  &==&@@.==@ @@@=&. ==  ; .. ",
"O   &&&&&@.&=+ @==@@=.&@&@ ;;  ;",
"O; &&@&&@&.==& &=&.&=@.&&&@ ;;;;",
"O &&@@@@&..&&& ==&.@&&@..&@@ ;;;",
"> @ @@@& ..&&& &&&.@&&@  .@@@ ;;",
">O @@@@  .@@&+ @&@.@@&@@    @ ;;",
"O; ++@ ; .@@@ . @@.@@ +@@ *O  OO",
"O @++ OO @@@+ . @@ @@ .@@ *XO$O-",
"O ++ %O# @@@ .. @@ .@ . @@ XXO$-",
"O + %$Xo @@+ .. @@..@ .  @ oOO$%",
"OO $oXXo +.   .. @  @  oo  X#OO$",
"O$OOXXoX . Xo  .   X X#XXXXX#oO%",
"O$%###oX  XXoooooXo####oXo###oO$",
"OO$$$$ooXXXXXoooXXXooooXXXoo$OOO",
">OOOOOXXX>>>OXXXX>>OXXO>>>XXO$>>"
};
