/* XPM */
static char *result[] = {
/* columns rows colors chars-per-pixel */
"32 32 5 1 ",
"  c #423934",
". c #5A4E44",
"X c #796755",
"o c #A08662",
"O c None",
/* pixels */
"  XXoooX ooooo .Xooo Xooooo Xooo",
" .XXXXX. XoooX .XXXX XXoooX .XXX",
" ..XXX..  XXX  .XXXX XXXXXX ..XX",
"  ..... . ...   .XX  .XXXXX.  ..",
" .      ..   X .   .  .....  XXX",
" .XXXX ...XXX. .....        ..XX",
"  ....   ....   ...   ......  ..",
"O     Xoo    oo     oo       .  ",
" XXoooXoooo oooX. ooooo oooo .oo",
" .XXXX XXXX XXXX. XoooX XXX. .Xo",
" .XXX. .XX. XXXX.  XXX  .X..  .X",
"  ...  ....  XX.   ... .... X   ",
" .    . ... .   . X   X     X. X",
" .XXXX. ..  ..... .XXXX. .XXX. .",
"  ......     ...   ....   ...   ",
"O        ooo     oo    ooo   .oo",
" XXooooX ooooo .Xooo Xooooo Xooo",
" .XXXXX. XoooX .XXXX XXoooX .XXX",
" ..XXX..  XXX  .XXXX XXXXXX ..XX",
"  ..... . ...   .XX  .XXXXX.    ",
" .      ..   X .   .  .....  XXX",
" .XXXX ...XXX. .....        ..XX",
"  ....   ....   ...   ......  ..",
"      Xoo    oo     oo       .  ",
" XXoooXoooo oooX. ooooo oooo .oo",
" .XXXX XXXX XXXX. XoooX XXX. .Xo",
" .XXX. .XX. XXXX.  XXX  .X..  .X",
"  ...  ....  XX.   ... .... X  .",
" .    . ... .   . X   X     X. X",
" .XXXX. ..  ..... .XXXX. .XXX. .",
"  ......     ...   ....   ...   ",
"O        ooo     oo    ooo   ooo"
};
