/* XPM */
static char *result[] = {
/* columns rows colors chars-per-pixel */
"32 32 10 1 ",
"  c #423934",
". c #4A5462",
"X c #39973A",
"o c #5E882C",
"O c #A08662",
"+ c #9CDB43",
"@ c #C0F675",
"# c #6D758D",
"$ c #C7B08B",
"% c #E4D2AA",
/* pixels */
"++++++++++++++++++++++++++++++++",
"++++++++++++++++++++++++++++++++",
"++++++++++++++++++++++++++++++++",
"++++++++++++++++++++++++++++++++",
"++++++++++++++++++@@++++++++++++",
"++++++++++++++++++@@@++@@@++++++",
"+++++++++++++++++XX@@+@@@+++++++",
"++++++++ # +++++++XX@+@@XX++++++",
"+++++++ ##% ++++++++++@XX+++++++",
"+++++++.#%#.+++   ++++++++++++++",
"++++++++   +++ ### +++++++++++++",
"++++++++ O ++ ##### ++++++++++++",
"+++++++o $ o #####%# +++++++++++",
"++++++++ooo .%######. ++++++++++",
"+++++++++++ ..##%##.. ++++++++++",
"++++++++++++ ....... +++++++++++",
"+++++++++++++       ++++++++++++",
"++++++++++++++ $OO +++++++++++++",
"+++++++++++++ $$$$O ++++++++++++",
"++++++++++++oo $$$ oo+++++++++++",
"++++++++++++ooooooooo+++++++++++",
"++++++++++@@+ooooooo++++++++++++",
"++++++++++@@@++@@@++++++++++++++",
"+++++++++XX@@+@@@+++++++++++++++",
"+++++++@@@XX@+@@XX++++++++++++++",
"++++++++@@@+++@XX+++++++++++++++",
"+++++++XX@@+++++++++++++++++++++",
"++++++++XX@+++++++++++++++++++++",
"++++++++++++++++++++++++++++++++",
"++++++++++++++++++++++++++++++++",
"++++++++++++++++++++++++++++++++",
"++++++++++++++++++++++++++++++++"
};
