/* XPM */
static char *result[] = {
/* columns rows colors chars-per-pixel */
"32 32 21 1 ",
"  c #140B01",
". c #201304",
"X c #2E1C08",
"o c #391F02",
"O c #3D253B",
"+ c #3A3737",
"@ c #522F07",
"# c #186019",
"$ c #6B4111",
"% c #827C7C",
"& c #A17877",
"* c #39973A",
"= c #7DB929",
"- c #C49172",
"; c #9CDB43",
": c #C0F675",
"> c #B7B3B2",
", c #D6B39D",
"< c #CCA8A3",
"1 c #EBD0C5",
"2 c #EFE9E7",
/* pixels */
";++;;;;;;++;;;;;;;;;;;;;;;;;;;;;",
";+2+;;;;+2+;;;;;;;;;;;;;;;;;;;;;",
";+,2+>>+2,+;;;;;;;;;;;;;;;;;;;;;",
";;-,>++>,-;;;;;;;;;;;;;;;;;;;;;;",
";;%,2222,%;;;;;;;;::;;;;;;;;;;;;",
";+2>>22>>2+;;;;;;;:::;;:::;;;;;;",
";+2%+>>+%2+;;;;;;**::;:::;;;;;;;",
";+22>22>22+;;;;=*;**:;::**;;;;;;",
";;2+2++2+2;;;=####==;;:**;;;;;;;",
";+>2++++2>+==@o$@$o#*=;;;;;;;;;;",
";;++%>>%++#o@@$$@o$o**==;;;;;;;;",
";;;+2%%2+#@$@OOOOOOO$o#=;;;;;;;;",
";;;22++22@$oO<<<111<O$@#=;;;;;;;",
";;;;;;;=#@$O<<<11111O$@#=;;;;;;;",
";;;;;;=#$@$O<<<11111O$$@#=;;;;;;",
";;;;;=*$$o@O<<<OO11OOo@@$=;;;;;;",
";;;;;=#@X.@O<<<OO11OO.@X@*;;;;;;",
";;;;;;==* o OO<<1111O  .*=;;;;;;",
";;;;;;;==     O&1&1<O  *=;;;;;;;",
";;;;;;;;=#    OO&&&&O ==;;;;;;;;",
";;;;;;;;=#  OO1<OOOO  *=;;;;;;;;",
";;;;;;;;;=::11<<<111O==;;;;;;;;;",
";;;;;;;;;;:::11:::1#=;;;;;;;;;;;",
";;;;;;;;;**::;:::;;;;;;;;;;;;;;;",
";;;;;;;:::**:;::**;;;;;;;;;;;;;;",
";;;;;;;;:::;;;:**;;;;;;;;;;;;;;;",
";;;;;;;**::;;;;;;;;;;;;;;;;;;;;;",
";;;;;;;;**:;;;;;;;;;;;;;;;;;;;;;",
";;;;;;;;;;;;;;;;;;;;;;;;;;;;;;;;",
";;;;;;;;;;;;;;;;;;;;;;;;;;;;;;;;",
";;;;;;;;;;;;;;;;;;;;;;;;;;;;;;;;",
";;;;;;;;;;;;;;;;;;;;;;;;;;;;;;;;"
};
