/* XPM */
static char *xpm_[] = {
/* columns rows colors chars-per-pixel */
"32 32 15 1 ",
"  c #140B01",
". c #201304",
"X c #2E1C08",
"o c #391F02",
"O c #3A3737",
"+ c #522F07",
"@ c #186019",
"# c #6B4111",
"$ c #827C7C",
"% c #39973A",
"& c #7DB929",
"* c #9CDB43",
"= c #C0F675",
"- c #B7B3B2",
"; c #EFE9E7",
/* pixels */
"********************************",
"********************************",
"********************************",
"********************************",
"******************==************",
"*********O-O******=O;O*===******",
"*********O-;OOO*OO%;;O===*******",
"*********O-;-$;O;$O;;O==%%******",
"*********O$;;O-O-O$;;O=%%*******",
"**********O;;-OOO-;;$&**********",
"*********&@-;;-$$;;-O%&&********",
"********&@+O-;---;;OOo@&********",
"*******&&+#OO;---;-OO#+@&*******",
"*******&@+#O--;;;--OO#+@&*******",
"******&@#+#O-;;;;;-O###+@&******",
"*****&%##o+O-;;;;;;O#o++#&******",
"*****&@+X.+OO-;;;--O..+X+%******",
"******&&% oOO-;;;-$O   .%&******",
"*******&&  OO-;;;--O   %&*******",
"********&@ O--;;;--O  &&********",
"********&@ --;;;;;;-O %&********",
"*********&==-;;;;;;-O&&*********",
"**********===;;===;@&***********",
"*********%%==*===***************",
"*******===%%=*==%%**************",
"********===***=%%***************",
"*******%%==*********************",
"********%%=*********************",
"********************************",
"********************************",
"********************************",
"********************************"
};
