/* XPM */
static char *result[] = {
/* columns rows colors chars-per-pixel */
"32 32 48 1 ",
"  c #381E02",
". c #391E02",
"X c #381F02",
"o c #391F02",
"O c #391E03",
"+ c #381F03",
"@ c #391F03",
"# c #522E06",
"$ c #522F06",
"% c #532F06",
"& c #522E07",
"* c #522F07",
"= c #532F07",
"- c #186018",
"; c #186019",
": c #186119",
"> c #196119",
", c #6B4010",
"< c #6A4110",
"1 c #6B4110",
"2 c #6A4011",
"3 c #6B4011",
"4 c #6A4111",
"5 c #6B4111",
"6 c #38963A",
"7 c #39963A",
"8 c #38973A",
"9 c #39973A",
"0 c #38963B",
"q c #39963B",
"w c #39973B",
"e c #7DB928",
"r c #7DB829",
"t c #7CB929",
"y c #7DB929",
"u c #9CDA42",
"i c #9DDA42",
"p c #9CDB42",
"a c #9DDB42",
"s c #9CDA43",
"d c #9DDA43",
"f c #9CDB43",
"g c #9DDB43",
"h c #C0F674",
"j c #C1F774",
"k c #C0F675",
"l c #C1F675",
"z c #C0F775",
/* pixels */
"fupfafspfpfpffgsfpfspffppfpgppff",
"fffsfgffsfffgpgsffffgsssssfsfsff",
"fsfsffpfddfgfpffpffffffffgusffuf",
"sfffffffffgffpugusfsgfffffffffff",
"fffusfpffffffsffpgjkgggfffffgpff",
"ffffffffffsffffffsklkspkkkpfffff",
"ffffgfffpffsfdfff99hkgkkzfsffufp",
"spffssfgfpffsffy8f79kfzk99ffffpf",
"sfpssffifffffr;;;;yyffh99fpgsfff",
"psffsfffgfpyy$o3*5;-9yfpfdssgsff",
"ffffffgffy;oo$15555+9wrypsfffffg",
"pfffffdft;*1215&*1555$;rffuufffg",
"ffggfffyy*4%*$55&*5*55&;ygfpfsff",
"fffffpft;o55.*oooo$o*4#;tfafuffp",
"gpgffpy>5*55.oo.@&oO*25*;yuppgsf",
"fffsfew5,1*5.@oooooo*5=*5yffpdsf",
"afspfy;5$<oooo .ooo@555**9fgffff",
"ffffsfyy9***oXoo@ooo**1o0yafffff",
"susgfffyr@=5oo.oooooo3*9yfpuffug",
"ffpffpgfy;*o5ooooo.o5$rtgffffffd",
"safgffgfr;o*o5.oooo$5o9tfsffgffg",
"ffffgffsfykhX*3&.o3*;yefpffgfafs",
"fpffsdffpfkhho@kkzo:yffgafgpfpfp",
"gffdffffp7wkkghhkfffussafffffpgp",
"gffspfgkkh99kskk99sfpfffsffspaff",
"pfffffffkkkfsfkq9fssfffffffffsfg",
"ugfgfpf99kkfgffpfffffsfsfffufdsf",
"ffgffsfs96lfssfpggfpsgfpgafffffp",
"gpsfpffffffspfaffffffffgfsffffpf",
"ugffsffafguffuffffffppsfgsfgsfff",
"ssffffffffffffffgffsfffffgfffgfp",
"ffffpfffgffffsffsfgfgfpfffuffffs"
};
