/* XPM */
static char *result[] = {
/* columns rows colors chars-per-pixel */
"32 32 21 1 ",
"  c #140B01",
". c #201304",
"X c #2E1C08",
"o c #391F02",
"O c #3D253B",
"+ c #3A3737",
"@ c #522F07",
"# c #186019",
"$ c #6B4111",
"% c #827C7C",
"& c #A17877",
"* c #39973A",
"= c #7DB929",
"- c #C49172",
"; c #9CDB43",
": c #C0F675",
"> c #B7B3B2",
", c #D6B39D",
"< c #CCA8A3",
"1 c #EBD0C5",
"2 c #EFE9E7",
/* pixels */
";++;;;;;;++;;;;;;;;;;;;;;;;;;;;;",
";+2+;;;;+2+;;;;;;;;;;;;;;;;;;;;;",
";+,2+>>+2,+;;;;;;;;;;;;;;;;;;;;;",
";;-,>++>,-;;;OOOOOO;;;;;;;;;;;;;",
";;%,2222,%;;;<1111<O;;;;;;;;;;;;",
";+2>>22>>2+;O111111<O;;:::;;;;;;",
";+2%+>>+%2+;OOO11OO<O;:::;;;;;;;",
";+22>22>22+;OOO11OO<O;::**;;;;;;",
";;2+2++2+2;;;<1111<O;;:**;;;;;;;",
";+>2++++2>+=O<&<<&<&O=;;;;;;;;;;",
";;++%>>%++#O1&1&&1&<1O==;;;;;;;;",
";;;+2%%2+#@O<<1111<<<O#=;;;;;;;;",
";;;22++22@$oO<<<<<<OO$@#=;;;;;;;",
";;;;;;;=#@$o@<<OO<<Oo$@#=;;;;;;;",
";;;;;;=#$@$o@OO..OO@$$$@#=;;;;;;",
";;;;;=*$$o@o..    ..$o@@$=;;;;;;",
";;;;;=#@X.@o        ..@X@*;;;;;;",
";;;;;;==* o            .*=;;;;;;",
";;;;;;;==              *=;;;;;;;",
";;;;;;;;=#            ==;;;;;;;;",
";;;;;;;;=#            *=;;;;;;;;",
";;;;;;;;;=::         ==;;;;;;;;;",
";;;;;;;;;;:::  ::: #=;;;;;;;;;;;",
";;;;;;;;;**::;:::;;;;;;;;;;;;;;;",
";;;;;;;:::**:;::**;;;;;;;;;;;;;;",
";;;;;;;;:::;;;:**;;;;;;;;;;;;;;;",
";;;;;;;**::;;;;;;;;;;;;;;;;;;;;;",
";;;;;;;;**:;;;;;;;;;;;;;;;;;;;;;",
";;;;;;;;;;;;;;;;;;;;;;;;;;;;;;;;",
";;;;;;;;;;;;;;;;;;;;;;;;;;;;;;;;",
";;;;;;;;;;;;;;;;;;;;;;;;;;;;;;;;",
";;;;;;;;;;;;;;;;;;;;;;;;;;;;;;;;"
};
