/* XPM */
static char *result[] = {
/* columns rows colors chars-per-pixel */
"32 32 19 1 ",
"  c #35793C",
". c #524E53",
"X c #6C686F",
"o c #77737B",
"O c #39973A",
"+ c #7DAB42",
"@ c #86BC39",
"# c #8CC43C",
"$ c #94D03F",
"% c #97BE67",
"& c #98D641",
"* c #9CDB43",
"= c #C0F675",
"- c #85828B",
"; c #918F98",
": c #94919A",
"> c #A09EA7",
", c #AEACB6",
"< c #C8C8C8",
/* pixels */
"********************************",
"********************************",
"********************************",
"********************************",
"******************==************",
"******************===**===******",
"*****************OO==*===*******",
"******************OO=*==OO******",
"**********************=OO*******",
"********************************",
"********************************",
"*************XXXXXX*************",
"**********X--:::::-XXX**********",
"********X-:,,,,,,>>::-XX********",
"*******-><<,,,,,,,>>::--X*******",
"******-,<<,,<<<<,<,>:::--X******",
"*****-:<<<<<,;;---;>,>:--o.*****",
"*****-><<,;;-;->>--;;->:-o.*****",
"*****-><;;-;o-->>--;---;:o.*****",
"*****->;-;--o>>>>>>----;-o.*****",
"*****-;;----->>>>>>;-o----.*****",
"*****X;;------->>--------o.*****",
"*****X;-----;--%%------;-X.*****",
"*****X;--O ;;-%%%o-------o.*****",
"*******===O %+%%  +++***********",
"********===***=OO***********$&**",
"*******OO==*****************@#$*",
"********OO=*********************",
"********************************",
"********************************",
"********************************",
"********************************"
};
