/* XPM */
static char *result[] = {
/* columns rows colors chars-per-pixel */
"32 32 10 1 ",
"  c #3D253B",
". c #35793C",
"X c #39973A",
"o c #7DAB42",
"O c #97BE67",
"+ c #9CDB43",
"@ c #C0F675",
"# c #AD99AC",
"$ c #C0AFBF",
"% c #D1C2CF",
/* pixels */
"++++++++++++++++++++++++++++++++",
"++++++++++++++++++++++++++++++++",
"++++++++++++++++++++++++++++++++",
"++++++++++++++++++++++++++++++++",
"++++++++++++++++++@@++++++++++++",
"++++++++++++++++++@@@++@@@++++++",
"+++++++++++++++++XX@@+@@@+++++++",
"++++++++++++++++++XX@+@@XX++++++",
"+++++++++++++      +++@XX+++++++",
"++++++++++++ $%%%%$ ++++++++++++",
"+++++++++++ $%%%%%%$ +++++++++++",
"+++++++++++ $%%%%%%$ +++++++++++",
"+++++++++++ $%%%%%%$ +++++++++++",
"+++++++++++ $##%%##$ +++++++++++",
"++++++++++++ $%%%%$ ++++++++++++",
"+++++++++++ #$#$$#$# +++++++++++",
"++++++++++ $$#%##%#$$ ++++++++++",
"+++++++++ %%$$%%%%$$%% +++++++++",
"++++++++++   %$$$$%   ++++++++++",
"++++++++++++ $%%%%$ ++++++++++++",
"++++++++++++ %$$$$% ++++++++++++",
"++++++++++@ $%#  #%$ +++++++++++",
"++++++++++O %% OO %% o++++++++++",
"+++++++++X.OOoOOOooooo++++++++++",
"+++++++@@@X.OoOO..ooo+++++++++++",
"++++++++@@@+++@XX+++++++++++++++",
"+++++++XX@@+++++++++++++++++++++",
"++++++++XX@+++++++++++++++++++++",
"++++++++++++++++++++++++++++++++",
"++++++++++++++++++++++++++++++++",
"++++++++++++++++++++++++++++++++",
"++++++++++++++++++++++++++++++++"
};
