/* XPM */
static char *result[] = {
/* columns rows colors chars-per-pixel */
"32 32 9 1 ",
"  c #3D253B",
". c #35793C",
"X c #39973A",
"o c #7DAB42",
"O c #97BE67",
"+ c #9CDB43",
"@ c #C0F675",
"# c #CCA8A3",
"$ c #EBD0C5",
/* pixels */
"++++++++++++++++++++++++++++++++",
"++++++++++++++++++++++++++++++++",
"++++++++++++++++++++++++++++++++",
"++++++++++++++++++++++++++++++++",
"++++++++++++++++++@@++++++++++++",
"++++++++++++++++++@@@++@@@++++++",
"+++++++++++++++++XX@@+@@@+++++++",
"++++++++++++++++++XX@+@@XX++++++",
"++++++++++++++++++++++@XX+++++++",
"++++++++++++++++++++++++++++++++",
"++++++++++++++++++++++++++++++++",
"++++++++++++++++++++++++++++++++",
"++++++++++++++++++++++++++++++++",
"++++++++++++++++++++++++++++++++",
"++++++++++++++++++++++++++++++++",
"++++++++++++++++++++++++++++++++",
"++++++++++++++++++++++++++++++++",
"++++++++++++++++++++++++++++++++",
"++++++++++++++++++++++++++++++++",
"+++++++++++++      +++++++++++++",
"++++++++++++ $$$$$$ ++++++++++++",
"++++++++++@ #$$$$$$# +++++++++++",
"++++++++++O #$$$$$$# o++++++++++",
"+++++++++X.OOoOOOooooo++++++++++",
"+++++++@@@X.OoOO..ooo+++++++++++",
"++++++++@@@+++@XX+++++++++++++++",
"+++++++XX@@+++++++++++++++++++++",
"++++++++XX@+++++++++++++++++++++",
"++++++++++++++++++++++++++++++++",
"++++++++++++++++++++++++++++++++",
"++++++++++++++++++++++++++++++++",
"++++++++++++++++++++++++++++++++"
};
