/* XPM */
static char *result[] = {
/* columns rows colors chars-per-pixel */
"32 32 25 1 ",
"  c #524E53",
". c #5D595F",
"X c #6C686F",
"o c #77737B",
"O c #77747C",
"+ c #7B777E",
"@ c #709E30",
"# c #74A331",
"$ c #77A833",
"% c #7BAD35",
"& c #82B637",
"* c #83B838",
"= c #86BC39",
"- c #8CC43C",
"; c #92CE3F",
": c #94D03F",
"> c #98D641",
", c #9CDB43",
"< c #85828B",
"1 c #918F98",
"2 c #94919A",
"3 c #A09EA7",
"4 c #AEACB6",
"5 c #BAB9BE",
"6 c #C8C8C8",
/* pixels */
",,,,,,,,,,,,,XXXXXX,,,,,,,,,,,,,",
",,,,,,,,,,X<<22222<XXX,,,,,,,,,,",
",,,,,,,,X<24444443322<XX,,,,,,,,",
",,,,,,,<36644444443322<<X,,,,,,,",
",,,,,,<4664466664643222<<X,,,,,,",
",,,,,<266666411<<<13432<<o ,,,,,",
",,,,,<366411<1<33<<11<32<o ,,,,,",
",,,,,<3611<1o<<33<<1<<<12o ,,,,,",
",,,,,<31<1<<o333333<<<<1<o ,,,,,",
",,,,,<11<<<<<3333331<o<<<< ,,,,,",
",,,,,X11<<<<<<<33<<<<<<<<o ,,,,,",
",,,,,X1<<<<<1<<33<<<<<<1<X ,,,,,",
",,,,,X1<<1<11<<33o<<<<<<<o ,,,,,",
",,,,,X1<<<<1<<<<<<<<<<<<<X ,,,,,",
",,,,,X1<oo<<<<<<<<<<<<<<<o ;:>,,",
",,,,,X1<o<XXX..XX.XO.X<<<X *=-:,",
",,,,,X1<<<X.X.X.X<..<X<<<X $%&->",
",,,,,X1<<<<<<<<<1<<<<o<<<X @#%=:",
",,,XXX<<XX..XX.XO.XX..XXoX   $*;",
",,,X2X1<<<<1<<<<<<<<<<<<oX + $*;",
",,,X4X1<.X.X.X<..<.X.X.XoX + $*;",
",,,X5X<<<<<<<<o<<<o<oo<ooX + $*;",
",,,X5X1<XX..XXXX..XX.XO.oX + $*;",
",,,X6X<oooooooXooooooooooX + $*;",
",,,X5X<ooXoooXXoXXoXoXXXXX 2 $*;",
",,,X643333333333333333333333 $*;",
",,,X666666566656556545444443 $*;",
",,, 4111111111<<11<<<1<<1<<< %=:",
",,,,,,,,,,,,,,,,,,,,,,,,,,,,,,,,",
",,,,,,,,,,,,,,,,,,,,,,,,,,,,,,,,",
",,,,,,,,,,,,,,,,,,,,,,,,,,,,,,,,",
",,,,,,,,,,,,,,,,,,,,,,,,,,,,,,,,"
};
