/* XPM */
static char *result[] = {
/* columns rows colors chars-per-pixel */
"32 32 23 1 ",
"  c #35793C",
". c #524E53",
"X c #5D595F",
"o c #6C686F",
"O c #77737B",
"+ c #77747C",
"@ c #39973A",
"# c #7DAB42",
"$ c #83B838",
"% c #86BC39",
"& c #8CC43C",
"* c #92CE3F",
"= c #94D03F",
"- c #97BE67",
"; c #98D641",
": c #9CDB43",
"> c #C0F675",
", c #85828B",
"< c #918F98",
"1 c #94919A",
"2 c #A09EA7",
"3 c #AEACB6",
"4 c #C8C8C8",
/* pixels */
"::::::::::::::::::::::::::::::::",
"::::::::::::::::::::::::::::::::",
"::::::::::::::::::::::::::::::::",
"::::::::::::::::::::::::::::::::",
"::::::::::::::::::>>::::::::::::",
"::::::::::::::::::>>>::>>>::::::",
":::::::::::::::::@@>>:>>>:::::::",
"::::::::::::::::::@@>:>>@@::::::",
":::::::::::::oooooo:::>@@:::::::",
"::::::::::o,,11111,ooo::::::::::",
"::::::::o,13333332211,oo::::::::",
":::::::,24433333332211,,o:::::::",
"::::::,3443344443432111,,o::::::",
":::::,1444443<<,,,<2321,,O.:::::",
":::::,2443<<,<,22,,<<,21,O.:::::",
":::::,24<<,<O,,22,,<,,,<1O.:::::",
":::::,2<,<,,O222222,,,,<,O.:::::",
":::::,<<,,,,,222222<,O,,,,.:::::",
":::::o<<,,,,,,,22,,,,,,,,O.:::::",
":::::o<,,,,,<,,22,,,,,,<,o.:::::",
":::::o<,,<,<<,,22O,,,,,,,O.:::::",
":::::o<,,,,<,,,,,,,,,,,,,o.:::::",
":::::o<,OO,,,,,---,,,,,,,O.*=;::",
":::::o<,O@ ooXX--Xo+Xo,,,o.$%&=:",
":::::::>>>@ -#--  ###:::::::::::",
"::::::::>>>:::>@@:::::::::::::::",
":::::::@@>>:::::::::::::::::::::",
"::::::::@@>:::::::::::::::::::::",
"::::::::::::::::::::::::::::::::",
"::::::::::::::::::::::::::::::::",
"::::::::::::::::::::::::::::::::",
"::::::::::::::::::::::::::::::::"
};
