/* XPM */
static char *result[] = {
/* columns rows colors chars-per-pixel */
"32 32 27 1 ",
"  c #524E53",
". c #5D595F",
"X c #6C686F",
"o c #77737B",
"O c #77747C",
"+ c #7B777E",
"@ c #39973A",
"# c #709E30",
"$ c #74A331",
"% c #77A833",
"& c #7BAD35",
"* c #82B637",
"= c #83B838",
"- c #86BC39",
"; c #8CC43C",
": c #92CE3F",
"> c #94D03F",
", c #98D641",
"< c #9CDB43",
"1 c #C0F675",
"2 c #85828B",
"3 c #918F98",
"4 c #94919A",
"5 c #A09EA7",
"6 c #AEACB6",
"7 c #BAB9BE",
"8 c #C8C8C8",
/* pixels */
"<<<<<<<<<<<<<<<<<<<<<<<<<<<<<<<<",
"<<<<<<<<<<<<<<<<<<<<<<<<<<<<<<<<",
"<<<<<<<<<<<<<XXXXXX<<<<<<<<<<<<<",
"<<<<<<<<<<X22444442XXX<<<<<<<<<<",
"<<<<<<<<X2466666655442XX<<<<<<<<",
"<<<<<<<25886666666554422X1<<<<<<",
"<<<<<<2688668888686544422X<<<<<<",
"<<<<<24888886332223565422o <<<<<",
"<<<<<25886332325522332542o <<<<<",
"<<<<<2583323o225522322234o <<<<<",
"<<<<<2532322o555555222232o <<<<<",
"<<<<<2332222255555532o2222 <<<<<",
"<<<<<X3322222225522222222o <<<<<",
"<<<<<X3222223225522222232X <<<<<",
"<<<<<X32232332255o2222222o <<<<<",
"<<<<<X3222232222222222222X <<<<<",
"<<<<<X32oo222222222222222o :>,<<",
"<<<<<X32o2XXX..XX.XO.X222X =-;><",
"<<<<<X3222X.X.X.X2..2X222X %&*;,",
"<<<<<X322222222232222o222X #$&->",
"<<<XXX22XX..XX.XO.XX..XXoX   %=:",
"<<<X4X322223222222222222oX + %=:",
"<<<X6X32.X.X.X2111.X.X.XoX + %=:",
"<<<X7X222@@2221112o2oo2ooX + %=:",
"<<<X7X3211@@XX11@.XX.XO.oX + %::",
"<<<X8X2o111ooo1@@ooooooooX + =:<",
"<<<<<<<@@11<<<<<<<<<<<<<<<<<<<<<",
"<<<<<<<<@@1<<<<<<<<<<<<<<<<<<<<<",
"<<<<<<<<<<<<<<<<<<<<<<<<<<<<<<<<",
"<<<<<<<<<<<<<<<<<<<<<<<<<<<<<<<<",
"<<<<<<<<<<<<<<<<<<<<<<<<<<<<<<<<",
"<<<<<<<<<<<<<<<<<<<<<<<<<<<<<<<<"
};
