/* XPM */
static char *result[] = {
/* columns rows colors chars-per-pixel */
"32 32 28 1 ",
"  c #35793C",
". c #524E53",
"X c #5D595F",
"o c #6C686F",
"O c #77737B",
"+ c #77747C",
"@ c #7B777E",
"# c #39973A",
"$ c #709E30",
"% c #74A331",
"& c #77A833",
"* c #7BAD35",
"= c #82B637",
"- c #83B838",
"; c #86BC39",
": c #8CC43C",
"> c #92CE3F",
", c #94D03F",
"< c #97BE67",
"1 c #98D641",
"2 c #9CDB43",
"3 c #C0F675",
"4 c #85828B",
"5 c #918F98",
"6 c #94919A",
"7 c #A09EA7",
"8 c #AEACB6",
"9 c #C8C8C8",
/* pixels */
"22222222222222222222222222222222",
"22222222222222222222222222222222",
"22222222222222222222222222222222",
"22222222222222222222222222222222",
"22222222222222222233222222222222",
"2222222222222oooooo3322333222222",
"2222222222o44666664ooo3332222222",
"22222222o4688888877664oo##222222",
"222222247998888888776644o2222222",
"2222224899889999898766644o222222",
"2222246999998554445787644O.22222",
"2222247998554547744554764O.22222",
"222224795545O447744544456O.22222",
"222224754544O777777444454O.22222",
"222224554444477777754O4444.22222",
"22222o5544444447744444444O.22222",
"22222o5444445447744444454o.22222",
"22222o54454554477O4444444O.22222",
"22222o5444454444444444444o.22222",
"22222o54OO444444444444444O.>,122",
"22222o54O4oooXXooXo+Xo444o.-;:,2",
"22222o5444oXoXoXo4XX4o444o.&*=:1",
"22222o544444444<<<444O444o.$%*;,",
"222ooo44o# Xoo<<<XooXXooOo...&->",
"222o6o5433# 44<< 4444444Oo.@.&->",
"222222223332223##2222222222222->",
"2222222##332222222222222222222->",
"22222222##3222222222222222222&->",
"22222222222222222222222222222222",
"22222222222222222222222222222222",
"222222222222222222222222222222->",
"2222222222222222222222222222222>"
};
