/* XPM */
static char *result[] = {
/* columns rows colors chars-per-pixel */
"32 32 10 1 ",
"  c #3D253B",
". c #35793C",
"X c #A17877",
"o c #39973A",
"O c #7DAB42",
"+ c #97BE67",
"@ c #9CDB43",
"# c #C0F675",
"$ c #CCA8A3",
"% c #EBD0C5",
/* pixels */
"@@@@@@@@@@@@@@@@@@@@@@@@@@@@@@@@",
"@@@@@@@@@@@@@@@@@@@@@@@@@@@@@@@@",
"@@@@@@@@@@@@@@@@@@@@@@@@@@@@@@@@",
"@@@@@@@@@@@@@@@@@@@@@@@@@@@@@@@@",
"@@@@@@@@@@@@@@@@@@##@@@@@@@@@@@@",
"@@@@@@@@@@@@@@@@@@###@@###@@@@@@",
"@@@@@@@@@@@@@@@@@oo##@###@@@@@@@",
"@@@@@@@@@@@@@      o#@##oo@@@@@@",
"@@@@@@@@@@@@ $%%%%$ @@#oo@@@@@@@",
"@@@@@@@@@@@ $%%%%%%$ @@@@@@@@@@@",
"@@@@@@@@@@@ $%%%%%%$ @@@@@@@@@@@",
"@@@@@@@@@@@ $  %%  $ @@@@@@@@@@@",
"@@@@@@@@@@@ $  %%  $ @@@@@@@@@@@",
"@@@@@@@@@@@@ $%%%%$ @@@@@@@@@@@@",
"@@@@@@@@@@@@ $X$$X$ @@@@@@@@@@@@",
"@@@@@@@@@@@@@  XX  @@@@@@@@@@@@@",
"@@@@@@@@@@@@@@@  @@@@@@@@@@@@@@@",
"@@@@@@@@@@@@@@@@@@  @@@@@@@@@@@@",
"@@@@@@@@@@@@@     $$ @@@@@@@@@@@",
"@@@@@@@@@@@@ %$$$$%X$ @@@@@@@@@@",
"@@@@@@@@@@@@ %%%%%%X$ @@@@@@@@@@",
"@@@@@@@@@@# $%X  X%$ @@@@@@@@@@@",
"@@@@@@@@@@+ %% ++ %% O@@@@@@@@@@",
"@@@@@@@@@o.++O+++OOOOO@@@@@@@@@@",
"@@@@@@@###o.+O++..OOO@@@@@@@@@@@",
"@@@@@@@@###@@@#oo@@@@@@@@@@@@@@@",
"@@@@@@@oo##@@@@@@@@@@@@@@@@@@@@@",
"@@@@@@@@oo#@@@@@@@@@@@@@@@@@@@@@",
"@@@@@@@@@@@@@@@@@@@@@@@@@@@@@@@@",
"@@@@@@@@@@@@@@@@@@@@@@@@@@@@@@@@",
"@@@@@@@@@@@@@@@@@@@@@@@@@@@@@@@@",
"@@@@@@@@@@@@@@@@@@@@@@@@@@@@@@@@"
};
